<svg class="railroad-diagram" width="350.5" height="122" viewBox="0 0 350.5 122" xmlns="http://www.w3.org/2000/svg" xmlns:xlink="http://www.w3.org/1999/xlink">
<g transform="translate(.5 .5)">
<g>
<path d="M20 21v20m0 -10h20"></path>
</g>
<g>
<path d="M40 31h0"></path>
<path d="M310.5 31h0"></path>
<path d="M40 31h20"></path>
<g class="non-terminal ">
<path d="M60 31h67"></path>
<path d="M223.5 31h67"></path>
<rect x="127" y="20" width="96.5" height="22"></rect>
<text x="175.25" y="35">statement</text>
</g>
<path d="M290.5 31h20"></path>
<path d="M40 31a10 10 0 0 1 10 10v10a10 10 0 0 0 10 10"></path>
<g>
<path d="M60 61h0"></path>
<path d="M290.5 61h0"></path>
<g class="terminal ">
<path d="M60 61h0"></path>
<path d="M122.5 61h0"></path>
<rect x="60" y="50" width="62.5" height="22" rx="10" ry="10"></rect>
<text x="91.25" y="65">BEGIN</text>
</g>
<path d="M122.5 61h10"></path>
<path d="M132.5 61h10"></path>
<g>
<path d="M142.5 61h0"></path>
<path d="M225 61h0"></path>
<path d="M142.5 61h10"></path>
<g class="non-terminal ">
<path d="M152.5 61h0"></path>
<path d="M215 61h0"></path>
<rect x="152.5" y="50" width="62.5" height="22"></rect>
<text x="183.75" y="65">block</text>
</g>
<path d="M215 61h10"></path>
<path d="M152.5 61a10 10 0 0 0 -10 10v10a10 10 0 0 0 10 10"></path>
<g class="terminal ">
<path d="M152.5 91h17"></path>
<path d="M198 91h17"></path>
<rect x="169.5" y="80" width="28.5" height="22" rx="10" ry="10"></rect>
<text x="183.75" y="95">;</text>
</g>
<path d="M215 91a10 10 0 0 0 10 -10v-10a10 10 0 0 0 -10 -10"></path>
</g>
<path d="M225 61h10"></path>
<path d="M235 61h10"></path>
<g class="terminal ">
<path d="M245 61h0"></path>
<path d="M290.5 61h0"></path>
<rect x="245" y="50" width="45.5" height="22" rx="10" ry="10"></rect>
<text x="267.75" y="65">END</text>
</g>
</g>
<path d="M290.5 61a10 10 0 0 0 10 -10v-10a10 10 0 0 1 10 -10"></path>
</g>
<path d="M 310.5 31 h 20 m 0 -10 v 20"></path>
</g>
<style>
	svg {
		background-color: hsl(30,20%,95%);
	}
	path {
		stroke-width: 3;
		stroke: black;
		fill: rgba(0,0,0,0);
	}
	text {
		font: bold 14px monospace;
		text-anchor: middle;
		white-space: pre;
	}
	text.diagram-text {
		font-size: 12px;
	}
	text.diagram-arrow {
		font-size: 16px;
	}
	text.label {
		text-anchor: start;
	}
	text.comment {
		font: italic 12px monospace;
	}
	g.non-terminal text {
		/&#42;font-style: italic;&#42;/
	}
	rect {
		stroke-width: 3;
		stroke: black;
		fill: hsl(120,100%,90%);
	}
	rect.group-box {
		stroke: gray;
		stroke-dasharray: 10 5;
		fill: none;
	}
	path.diagram-text {
		stroke-width: 3;
		stroke: black;
		fill: white;
		cursor: help;
	}
	g.diagram-text:hover path.diagram-text {
		fill: #eee;
	}</style>
</svg>
