<svg class="railroad-diagram" width="322" height="152" viewBox="0 0 322 152" xmlns="http://www.w3.org/2000/svg" xmlns:xlink="http://www.w3.org/1999/xlink">
<g transform="translate(.5 .5)">
<g>
<path d="M20 21v20m0 -10h20"></path>
</g>
<g>
<path d="M40 31h0"></path>
<path d="M282 31h0"></path>
<path d="M40 31h20"></path>
<g class="non-terminal ">
<path d="M60 31h48.5"></path>
<path d="M213.5 31h48.5"></path>
<rect x="108.5" y="20" width="105" height="22"></rect>
<text x="161" y="35">identifier</text>
</g>
<path d="M262 31h20"></path>
<path d="M40 31a10 10 0 0 1 10 10v10a10 10 0 0 0 10 10"></path>
<g class="non-terminal ">
<path d="M60 61h57"></path>
<path d="M205 61h57"></path>
<rect x="117" y="50" width="88" height="22"></rect>
<text x="161" y="65">constant</text>
</g>
<path d="M262 61a10 10 0 0 0 10 -10v-10a10 10 0 0 1 10 -10"></path>
<path d="M40 31a10 10 0 0 1 10 10v40a10 10 0 0 0 10 10"></path>
<g class="terminal ">
<path d="M60 91h74"></path>
<path d="M188 91h74"></path>
<rect x="134" y="80" width="54" height="22" rx="10" ry="10"></rect>
<text x="161" y="95">read</text>
</g>
<path d="M262 91a10 10 0 0 0 10 -10v-40a10 10 0 0 1 10 -10"></path>
<path d="M40 31a10 10 0 0 1 10 10v70a10 10 0 0 0 10 10"></path>
<g>
<path d="M60 121h0"></path>
<path d="M262 121h0"></path>
<g class="terminal ">
<path d="M60 121h0"></path>
<path d="M88.5 121h0"></path>
<rect x="60" y="110" width="28.5" height="22" rx="10" ry="10"></rect>
<text x="74.25" y="125">(</text>
</g>
<path d="M88.5 121h10"></path>
<path d="M98.5 121h10"></path>
<g class="non-terminal ">
<path d="M108.5 121h0"></path>
<path d="M213.5 121h0"></path>
<rect x="108.5" y="110" width="105" height="22"></rect>
<text x="161" y="125">expression</text>
</g>
<path d="M213.5 121h10"></path>
<path d="M223.5 121h10"></path>
<g class="terminal ">
<path d="M233.5 121h0"></path>
<path d="M262 121h0"></path>
<rect x="233.5" y="110" width="28.5" height="22" rx="10" ry="10"></rect>
<text x="247.75" y="125">)</text>
</g>
</g>
<path d="M262 121a10 10 0 0 0 10 -10v-70a10 10 0 0 1 10 -10"></path>
</g>
<path d="M 282 31 h 20 m 0 -10 v 20"></path>
</g>
<style>
	svg {
		background-color: hsl(30,20%,95%);
	}
	path {
		stroke-width: 3;
		stroke: black;
		fill: rgba(0,0,0,0);
	}
	text {
		font: bold 14px monospace;
		text-anchor: middle;
		white-space: pre;
	}
	text.diagram-text {
		font-size: 12px;
	}
	text.diagram-arrow {
		font-size: 16px;
	}
	text.label {
		text-anchor: start;
	}
	text.comment {
		font: italic 12px monospace;
	}
	g.non-terminal text {
		/&#42;font-style: italic;&#42;/
	}
	rect {
		stroke-width: 3;
		stroke: black;
		fill: hsl(120,100%,90%);
	}
	rect.group-box {
		stroke: gray;
		stroke-dasharray: 10 5;
		fill: none;
	}
	path.diagram-text {
		stroke-width: 3;
		stroke: black;
		fill: white;
		cursor: help;
	}
	g.diagram-text:hover path.diagram-text {
		fill: #eee;
	}</style>
</svg>
