<svg class="railroad-diagram" width="387.5" height="71" viewBox="0 0 387.5 71" xmlns="http://www.w3.org/2000/svg" xmlns:xlink="http://www.w3.org/1999/xlink">
<g transform="translate(.5 .5)">
<g>
<path d="M20 30v20m0 -10h20"></path>
</g>
<g>
<path d="M40 40h0"></path>
<path d="M216.5 40h0"></path>
<path d="M40 40a10 10 0 0 0 10 -10v0a10 10 0 0 1 10 -10"></path>
<g>
<path d="M60 20h136.5"></path>
</g>
<path d="M196.5 20a10 10 0 0 1 10 10v0a10 10 0 0 0 10 10"></path>
<path d="M40 40h20"></path>
<g>
<path d="M60 40h0"></path>
<path d="M196.5 40h0"></path>
<g class="terminal ">
<path d="M60 40h0"></path>
<path d="M105.5 40h0"></path>
<rect x="60" y="29" width="45.5" height="22" rx="10" ry="10"></rect>
<text x="82.75" y="44">VAR</text>
</g>
<path d="M105.5 40h10"></path>
<path d="M115.5 40h10"></path>
<g class="non-terminal ">
<path d="M125.5 40h0"></path>
<path d="M196.5 40h0"></path>
<rect x="125.5" y="29" width="71" height="22"></rect>
<text x="161" y="44">idList</text>
</g>
</g>
<path d="M196.5 40h20"></path>
</g>
<path d="M216.5 40h10"></path>
<g>
<path d="M226.5 40h0"></path>
<path d="M337.5 40h0"></path>
<g class="non-terminal ">
<path d="M226.5 40h0"></path>
<path d="M289 40h0"></path>
<rect x="226.5" y="29" width="62.5" height="22"></rect>
<text x="257.75" y="44">block</text>
</g>
<path d="M289 40h10"></path>
<path d="M299 40h10"></path>
<g class="terminal ">
<path d="M309 40h0"></path>
<path d="M337.5 40h0"></path>
<rect x="309" y="29" width="28.5" height="22" rx="10" ry="10"></rect>
<text x="323.25" y="44">.</text>
</g>
</g>
<path d="M337.5 40h10"></path>
<path d="M 347.5 40 h 20 m 0 -10 v 20"></path>
</g>
<style>
	svg {
		background-color: hsl(30,20%,95%);
	}
	path {
		stroke-width: 3;
		stroke: black;
		fill: rgba(0,0,0,0);
	}
	text {
		font: bold 14px monospace;
		text-anchor: middle;
		white-space: pre;
	}
	text.diagram-text {
		font-size: 12px;
	}
	text.diagram-arrow {
		font-size: 16px;
	}
	text.label {
		text-anchor: start;
	}
	text.comment {
		font: italic 12px monospace;
	}
	g.non-terminal text {
		/&#42;font-style: italic;&#42;/
	}
	rect {
		stroke-width: 3;
		stroke: black;
		fill: hsl(120,100%,90%);
	}
	rect.group-box {
		stroke: gray;
		stroke-dasharray: 10 5;
		fill: none;
	}
	path.diagram-text {
		stroke-width: 3;
		stroke: black;
		fill: white;
		cursor: help;
	}
	g.diagram-text:hover path.diagram-text {
		fill: #eee;
	}</style>
</svg>
