<svg class="railroad-diagram" width="435.5" height="80" viewBox="0 0 435.5 80" xmlns="http://www.w3.org/2000/svg" xmlns:xlink="http://www.w3.org/1999/xlink">
<g transform="translate(.5 .5)">
<g>
<path d="M20 30v20m0 -10h20"></path>
</g>
<path d="M40 40h10"></path>
<g>
<path d="M50 40h0"></path>
<path d="M385.5 40h0"></path>
<g class="terminal ">
<path d="M50 40h0"></path>
<path d="M78.5 40h0"></path>
<rect x="50" y="29" width="28.5" height="22" rx="10" ry="10"></rect>
<text x="64.25" y="44">{</text>
</g>
<path d="M78.5 40h10"></path>
<g>
<path d="M88.5 40h0"></path>
<path d="M347 40h0"></path>
<path d="M88.5 40a10 10 0 0 0 10 -10v0a10 10 0 0 1 10 -10"></path>
<g>
<path d="M108.5 20h218.5"></path>
</g>
<path d="M327 20a10 10 0 0 1 10 10v0a10 10 0 0 0 10 10"></path>
<path d="M88.5 40h20"></path>
<g>
<path d="M108.5 40h0"></path>
<path d="M327 40h0"></path>
<path d="M108.5 40h10"></path>
<g class="terminal ">
<path d="M118.5 40h0"></path>
<path d="M317 40h0"></path>
<rect x="118.5" y="29" width="198.5" height="22" rx="10" ry="10"></rect>
<text x="217.75" y="44">any character but '}'</text>
</g>
<path d="M317 40h10"></path>
<path d="M118.5 40a10 10 0 0 0 -10 10v0a10 10 0 0 0 10 10"></path>
<g>
<path d="M118.5 60h198.5"></path>
</g>
<path d="M317 60a10 10 0 0 0 10 -10v0a10 10 0 0 0 -10 -10"></path>
</g>
<path d="M327 40h20"></path>
</g>
<path d="M347 40h10"></path>
<g class="terminal ">
<path d="M357 40h0"></path>
<path d="M385.5 40h0"></path>
<rect x="357" y="29" width="28.5" height="22" rx="10" ry="10"></rect>
<text x="371.25" y="44">}</text>
</g>
</g>
<path d="M385.5 40h10"></path>
<path d="M 395.5 40 h 20 m 0 -10 v 20"></path>
</g>
<style>
	svg {
		background-color: hsl(30,20%,95%);
	}
	path {
		stroke-width: 3;
		stroke: black;
		fill: rgba(0,0,0,0);
	}
	text {
		font: bold 14px monospace;
		text-anchor: middle;
		white-space: pre;
	}
	text.diagram-text {
		font-size: 12px;
	}
	text.diagram-arrow {
		font-size: 16px;
	}
	text.label {
		text-anchor: start;
	}
	text.comment {
		font: italic 12px monospace;
	}
	g.non-terminal text {
		/&#42;font-style: italic;&#42;/
	}
	rect {
		stroke-width: 3;
		stroke: black;
		fill: hsl(120,100%,90%);
	}
	rect.group-box {
		stroke: gray;
		stroke-dasharray: 10 5;
		fill: none;
	}
	path.diagram-text {
		stroke-width: 3;
		stroke: black;
		fill: white;
		cursor: help;
	}
	g.diagram-text:hover path.diagram-text {
		fill: #eee;
	}</style>
</svg>
