<svg class="railroad-diagram" width="412.5" height="62" viewBox="0 0 412.5 62" xmlns="http://www.w3.org/2000/svg" xmlns:xlink="http://www.w3.org/1999/xlink">
<g transform="translate(.5 .5)">
<g>
<path d="M20 21v20m0 -10h20"></path>
</g>
<path d="M40 31h10"></path>
<g>
<path d="M50 31h0"></path>
<path d="M362.5 31h0"></path>
<g>
<path d="M50 31h0"></path>
<path d="M362.5 31h0"></path>
<g class="non-terminal ">
<path d="M50 31h0"></path>
<path d="M155 31h0"></path>
<rect x="50" y="20" width="105" height="22"></rect>
<text x="102.5" y="35">expression</text>
</g>
<path d="M155 31h10"></path>
<path d="M165 31h10"></path>
<g class="non-terminal ">
<path d="M175 31h0"></path>
<path d="M237.5 31h0"></path>
<rect x="175" y="20" width="62.5" height="22"></rect>
<text x="206.25" y="35">relop</text>
</g>
<path d="M237.5 31h10"></path>
<path d="M247.5 31h10"></path>
<g class="non-terminal ">
<path d="M257.5 31h0"></path>
<path d="M362.5 31h0"></path>
<rect x="257.5" y="20" width="105" height="22"></rect>
<text x="310" y="35">expression</text>
</g>
</g>
</g>
<path d="M362.5 31h10"></path>
<path d="M 372.5 31 h 20 m 0 -10 v 20"></path>
</g>
<style>
	svg {
		background-color: hsl(30,20%,95%);
	}
	path {
		stroke-width: 3;
		stroke: black;
		fill: rgba(0,0,0,0);
	}
	text {
		font: bold 14px monospace;
		text-anchor: middle;
		white-space: pre;
	}
	text.diagram-text {
		font-size: 12px;
	}
	text.diagram-arrow {
		font-size: 16px;
	}
	text.label {
		text-anchor: start;
	}
	text.comment {
		font: italic 12px monospace;
	}
	g.non-terminal text {
		/&#42;font-style: italic;&#42;/
	}
	rect {
		stroke-width: 3;
		stroke: black;
		fill: hsl(120,100%,90%);
	}
	rect.group-box {
		stroke: gray;
		stroke-dasharray: 10 5;
		fill: none;
	}
	path.diagram-text {
		stroke-width: 3;
		stroke: black;
		fill: white;
		cursor: help;
	}
	g.diagram-text:hover path.diagram-text {
		fill: #eee;
	}</style>
</svg>
