<svg class="railroad-diagram" width="273.5" height="92" viewBox="0 0 273.5 92" xmlns="http://www.w3.org/2000/svg" xmlns:xlink="http://www.w3.org/1999/xlink">
<g transform="translate(.5 .5)">
<g>
<path d="M20 21v20m0 -10h20"></path>
</g>
<path d="M40 31h10"></path>
<g>
<path d="M50 31h0"></path>
<path d="M223.5 31h0"></path>
<g>
<path d="M50 31h0"></path>
<path d="M175 31h0"></path>
<path d="M50 31h10"></path>
<g class="non-terminal ">
<path d="M60 31h0"></path>
<path d="M165 31h0"></path>
<rect x="60" y="20" width="105" height="22"></rect>
<text x="112.5" y="35">identifier</text>
</g>
<path d="M165 31h10"></path>
<path d="M60 31a10 10 0 0 0 -10 10v10a10 10 0 0 0 10 10"></path>
<g class="terminal ">
<path d="M60 61h38.25"></path>
<path d="M126.75 61h38.25"></path>
<rect x="98.25" y="50" width="28.5" height="22" rx="10" ry="10"></rect>
<text x="112.5" y="65">,</text>
</g>
<path d="M165 61a10 10 0 0 0 10 -10v-10a10 10 0 0 0 -10 -10"></path>
</g>
<path d="M175 31h10"></path>
<path d="M185 31h10"></path>
<g class="terminal ">
<path d="M195 31h0"></path>
<path d="M223.5 31h0"></path>
<rect x="195" y="20" width="28.5" height="22" rx="10" ry="10"></rect>
<text x="209.25" y="35">;</text>
</g>
</g>
<path d="M223.5 31h10"></path>
<path d="M 233.5 31 h 20 m 0 -10 v 20"></path>
</g>
<style>
	svg {
		background-color: hsl(30,20%,95%);
	}
	path {
		stroke-width: 3;
		stroke: black;
		fill: rgba(0,0,0,0);
	}
	text {
		font: bold 14px monospace;
		text-anchor: middle;
		white-space: pre;
	}
	text.diagram-text {
		font-size: 12px;
	}
	text.diagram-arrow {
		font-size: 16px;
	}
	text.label {
		text-anchor: start;
	}
	text.comment {
		font: italic 12px monospace;
	}
	g.non-terminal text {
		/&#42;font-style: italic;&#42;/
	}
	rect {
		stroke-width: 3;
		stroke: black;
		fill: hsl(120,100%,90%);
	}
	rect.group-box {
		stroke: gray;
		stroke-dasharray: 10 5;
		fill: none;
	}
	path.diagram-text {
		stroke-width: 3;
		stroke: black;
		fill: white;
		cursor: help;
	}
	g.diagram-text:hover path.diagram-text {
		fill: #eee;
	}</style>
</svg>
