<svg class="railroad-diagram" width="447" height="152" viewBox="0 0 447 152" xmlns="http://www.w3.org/2000/svg" xmlns:xlink="http://www.w3.org/1999/xlink">
<g transform="translate(.5 .5)">
<g>
<path d="M20 21v20m0 -10h20"></path>
</g>
<g>
<path d="M40 31h0"></path>
<path d="M407 31h0"></path>
<path d="M40 31h20"></path>
<g>
<path d="M60 31h20"></path>
<path d="M367 31h20"></path>
<g class="non-terminal ">
<path d="M80 31h0"></path>
<path d="M185 31h0"></path>
<rect x="80" y="20" width="105" height="22"></rect>
<text x="132.5" y="35">identifier</text>
</g>
<path d="M185 31h10"></path>
<path d="M195 31h10"></path>
<g class="terminal ">
<path d="M205 31h0"></path>
<path d="M242 31h0"></path>
<rect x="205" y="20" width="37" height="22" rx="10" ry="10"></rect>
<text x="223.5" y="35">:=</text>
</g>
<path d="M242 31h10"></path>
<path d="M252 31h10"></path>
<g class="non-terminal ">
<path d="M262 31h0"></path>
<path d="M367 31h0"></path>
<rect x="262" y="20" width="105" height="22"></rect>
<text x="314.5" y="35">expression</text>
</g>
</g>
<path d="M387 31h20"></path>
<path d="M40 31a10 10 0 0 1 10 10v10a10 10 0 0 0 10 10"></path>
<g>
<path d="M60 61h21.25"></path>
<path d="M365.75 61h21.25"></path>
<g class="terminal ">
<path d="M81.25 61h0"></path>
<path d="M143.75 61h0"></path>
<rect x="81.25" y="50" width="62.5" height="22" rx="10" ry="10"></rect>
<text x="112.5" y="65">write</text>
</g>
<path d="M143.75 61h10"></path>
<path d="M153.75 61h10"></path>
<g class="terminal ">
<path d="M163.75 61h0"></path>
<path d="M192.25 61h0"></path>
<rect x="163.75" y="50" width="28.5" height="22" rx="10" ry="10"></rect>
<text x="178" y="65">(</text>
</g>
<path d="M192.25 61h10"></path>
<path d="M202.25 61h10"></path>
<g class="non-terminal ">
<path d="M212.25 61h0"></path>
<path d="M317.25 61h0"></path>
<rect x="212.25" y="50" width="105" height="22"></rect>
<text x="264.75" y="65">expression</text>
</g>
<path d="M317.25 61h10"></path>
<path d="M327.25 61h10"></path>
<g class="terminal ">
<path d="M337.25 61h0"></path>
<path d="M365.75 61h0"></path>
<rect x="337.25" y="50" width="28.5" height="22" rx="10" ry="10"></rect>
<text x="351.5" y="65">)</text>
</g>
</g>
<path d="M387 61a10 10 0 0 0 10 -10v-10a10 10 0 0 1 10 -10"></path>
<path d="M40 31a10 10 0 0 1 10 10v40a10 10 0 0 0 10 10"></path>
<g>
<path d="M60 91h4.25"></path>
<path d="M382.75 91h4.25"></path>
<g class="terminal ">
<path d="M64.25 91h0"></path>
<path d="M101.25 91h0"></path>
<rect x="64.25" y="80" width="37" height="22" rx="10" ry="10"></rect>
<text x="82.75" y="95">IF</text>
</g>
<path d="M101.25 91h10"></path>
<path d="M111.25 91h10"></path>
<g class="non-terminal ">
<path d="M121.25 91h0"></path>
<path d="M226.25 91h0"></path>
<rect x="121.25" y="80" width="105" height="22"></rect>
<text x="173.75" y="95">comparison</text>
</g>
<path d="M226.25 91h10"></path>
<path d="M236.25 91h10"></path>
<g class="terminal ">
<path d="M246.25 91h0"></path>
<path d="M300.25 91h0"></path>
<rect x="246.25" y="80" width="54" height="22" rx="10" ry="10"></rect>
<text x="273.25" y="95">THEN</text>
</g>
<path d="M300.25 91h10"></path>
<path d="M310.25 91h10"></path>
<g class="non-terminal ">
<path d="M320.25 91h0"></path>
<path d="M382.75 91h0"></path>
<rect x="320.25" y="80" width="62.5" height="22"></rect>
<text x="351.5" y="95">block</text>
</g>
</g>
<path d="M387 91a10 10 0 0 0 10 -10v-40a10 10 0 0 1 10 -10"></path>
<path d="M40 31a10 10 0 0 1 10 10v70a10 10 0 0 0 10 10"></path>
<g>
<path d="M60 121h0"></path>
<path d="M387 121h0"></path>
<g class="terminal ">
<path d="M60 121h0"></path>
<path d="M122.5 121h0"></path>
<rect x="60" y="110" width="62.5" height="22" rx="10" ry="10"></rect>
<text x="91.25" y="125">WHILE</text>
</g>
<path d="M122.5 121h10"></path>
<path d="M132.5 121h10"></path>
<g class="non-terminal ">
<path d="M142.5 121h0"></path>
<path d="M247.5 121h0"></path>
<rect x="142.5" y="110" width="105" height="22"></rect>
<text x="195" y="125">comparison</text>
</g>
<path d="M247.5 121h10"></path>
<path d="M257.5 121h10"></path>
<g class="terminal ">
<path d="M267.5 121h0"></path>
<path d="M304.5 121h0"></path>
<rect x="267.5" y="110" width="37" height="22" rx="10" ry="10"></rect>
<text x="286" y="125">DO</text>
</g>
<path d="M304.5 121h10"></path>
<path d="M314.5 121h10"></path>
<g class="non-terminal ">
<path d="M324.5 121h0"></path>
<path d="M387 121h0"></path>
<rect x="324.5" y="110" width="62.5" height="22"></rect>
<text x="355.75" y="125">block</text>
</g>
</g>
<path d="M387 121a10 10 0 0 0 10 -10v-70a10 10 0 0 1 10 -10"></path>
</g>
<path d="M 407 31 h 20 m 0 -10 v 20"></path>
</g>
<style>
	svg {
		background-color: hsl(30,20%,95%);
	}
	path {
		stroke-width: 3;
		stroke: black;
		fill: rgba(0,0,0,0);
	}
	text {
		font: bold 14px monospace;
		text-anchor: middle;
		white-space: pre;
	}
	text.diagram-text {
		font-size: 12px;
	}
	text.diagram-arrow {
		font-size: 16px;
	}
	text.label {
		text-anchor: start;
	}
	text.comment {
		font: italic 12px monospace;
	}
	g.non-terminal text {
		/&#42;font-style: italic;&#42;/
	}
	rect {
		stroke-width: 3;
		stroke: black;
		fill: hsl(120,100%,90%);
	}
	rect.group-box {
		stroke: gray;
		stroke-dasharray: 10 5;
		fill: none;
	}
	path.diagram-text {
		stroke-width: 3;
		stroke: black;
		fill: white;
		cursor: help;
	}
	g.diagram-text:hover path.diagram-text {
		fill: #eee;
	}</style>
</svg>
